# xmcd CD database file
#
# Track frame offsets:
#	150
#	12733
#	26081
#	40641
#	54542
#	70571
#	80765
#	91499
#	101679
#	114628
#	126556
#	135815
#	147769
#	159362
#	171475
#	186819
#
# Disc length: 2665 seconds
#
# Revision: 0
# Processed by: cddbd v1.5.2PL0 Copyright (c) Steve Scherf et al.
# Submitted via: CDex 1.51
#
DISCID=db0a6710
DTITLE=Various Artist - Just Country (Drifting)
DYEAR=2006
DGENRE=Country
TTITLE0=Charley Pride - Help Me Make It Through The Night
TTITLE1=George Jones - Almost Persuaded
TTITLE2=lynn Anderson - Faithless Love
TTITLE3=Willie Nelson - Good Hearted Woman
TTITLE4=Brenda Lee - Coming On Strong
TTITLE5=Fronkie Laine - I Believe
TTITLE6=Dolly Parton - Hontky Tonk Angels
TTITLE7=Johnny Paycheck - A-11
TTITLE8=Slim Whitman - Red Sails In the Sunset
TTITLE9=Connie Francis - Among My Souveniers
TTITLE10=Faron Young - King Of The Road
TTITLE11=Ricky Valance - Tell Laura I Love Her
TTITLE12=Roger Miller - Little Green Apples
TTITLE13=Jim Reeves - Four Walls
TTITLE14=Kenny Rogers - For The Good Times
TTITLE15=Rita Coolidge - Mean To Me
EXTD=YEAR: 2006
EXTT0=
EXTT1=
EXTT2=
EXTT3=
EXTT4=
EXTT5=
EXTT6=
EXTT7=
EXTT8=
EXTT9=
EXTT10=
EXTT11=
EXTT12=
EXTT13=
EXTT14=
EXTT15=
PLAYORDER=
